<?xml version="1.0" encoding="UTF-8" standalone="no"?>
<!-- Created with Inkscape (http://www.inkscape.org/) -->

<svg
   xmlns:dc="http://purl.org/dc/elements/1.1/"
   xmlns:cc="http://creativecommons.org/ns#"
   xmlns:rdf="http://www.w3.org/1999/02/22-rdf-syntax-ns#"
   xmlns:svg="http://www.w3.org/2000/svg"
   xmlns="http://www.w3.org/2000/svg"
   xmlns:sodipodi="http://sodipodi.sourceforge.net/DTD/sodipodi-0.dtd"
   xmlns:inkscape="http://www.inkscape.org/namespaces/inkscape"
   width="115.10512mm"
   height="11.620996mm"
   viewBox="0 0 407.85278 41.176759"
   id="svg2"
   version="1.1"
   inkscape:version="0.91 r13725"
   sodipodi:docname="goulburnspeedwaylogo.svg">
  <defs
     id="defs4" />
  <sodipodi:namedview
     id="base"
     pagecolor="#ffffff"
     bordercolor="#666666"
     borderopacity="1.0"
     inkscape:pageopacity="0.0"
     inkscape:pageshadow="2"
     inkscape:zoom="0.98994949"
     inkscape:cx="319.53741"
     inkscape:cy="-14.189382"
     inkscape:document-units="px"
     inkscape:current-layer="layer1"
     showgrid="false"
     inkscape:window-width="1366"
     inkscape:window-height="705"
     inkscape:window-x="-8"
     inkscape:window-y="-8"
     inkscape:window-maximized="1"
     fit-margin-top="0"
     fit-margin-left="0"
     fit-margin-right="0"
     fit-margin-bottom="0" />
  <metadata
     id="metadata7">
    <rdf:RDF>
      <cc:Work
         rdf:about="">
        <dc:format>image/svg+xml</dc:format>
        <dc:type
           rdf:resource="http://purl.org/dc/dcmitype/StillImage" />
        <dc:title />
      </cc:Work>
    </rdf:RDF>
  </metadata>
  <g
     inkscape:label="Layer 1"
     inkscape:groupmode="layer"
     id="layer1"
     transform="translate(-73.174303,-426.28415)">
    <g
       transform="matrix(1,0,-0.28437779,1,0,0)"
       style="font-style:normal;font-variant:normal;font-weight:normal;font-stretch:normal;font-size:45px;line-height:125%;font-family:Oswald;-inkscape-font-specification:'Oswald, Normal';text-align:start;letter-spacing:0px;word-spacing:0px;writing-mode:lr-tb;text-anchor:start;fill:#77777f;fill-opacity:0.94117647;stroke:none;stroke-width:1px;stroke-linecap:butt;stroke-linejoin:miter;stroke-opacity:1"
       id="text4136">
      <path
         d="m 206.09731,454.27731 0,-13.93066 q 0,-14.01856 11.66748,-14.01856 2.46093,0 4.37255,0.65918 1.9336,0.63721 3.22998,1.77979 1.29639,1.14258 2.13135,2.8125 0.83496,1.66992 1.2085,3.62549 0.37353,1.95556 0.37353,4.30664 l 0,2.3291 -7.64648,0 0,-2.76855 q 0,-1.03272 -0.0659,-1.80176 -0.0439,-0.79102 -0.26367,-1.73584 -0.21973,-0.9668 -0.59326,-1.58203 -0.37354,-0.61524 -1.07666,-1.03272 -0.70313,-0.41748 -1.66992,-0.41748 -3.66944,0 -3.66944,5.84473 l 0,17.07275 q 0,5.82276 3.66944,5.82276 3.64746,0 3.64746,-6.04249 l 0,-3.16406 -4.52637,0 0,-5.73486 12.52441,0 0,20.34668 -5.49316,0 -1.01074,-2.76856 q -1.01074,1.58204 -2.87842,2.5708 -1.86768,0.9668 -3.84522,0.9668 -2.13134,0 -3.88916,-0.76904 -1.73584,-0.79102 -2.87841,-2.06543 -1.12061,-1.29639 -1.88965,-3.03223 -0.76905,-1.73584 -1.09863,-3.5376 -0.32959,-1.82373 -0.32959,-3.73535 z"
         style="font-style:normal;font-variant:normal;font-weight:bold;font-stretch:normal;font-family:Oswald;-inkscape-font-specification:'Oswald Bold'"
         id="path4144" />
      <path
         d="m 233.3434,453.64011 0,-13.29346 q 0,-14.01856 11.55762,-14.01856 11.57959,0 11.57959,14.01856 l 0,13.0957 q 0,2.37305 -0.35157,4.39453 -0.35156,1.99952 -1.20849,3.80127 -0.83496,1.80176 -2.15332,3.07617 -1.29639,1.25245 -3.2959,1.97754 -1.99951,0.7251 -4.57031,0.7251 -2.54883,0 -4.54834,-0.7251 -1.99952,-0.70312 -3.2959,-1.91162 -1.29639,-1.23047 -2.15332,-2.98828 -0.83496,-1.77978 -1.2085,-3.7793 -0.35156,-1.99951 -0.35156,-4.37255 z m 15.13916,1.80175 0,-17.09472 q 0,-5.84473 -3.58154,-5.84473 -1.07666,0 -1.82373,0.54932 -0.74707,0.52734 -1.09864,1.47217 -0.35156,0.92285 -0.50537,1.8457 -0.13183,0.90088 -0.13183,1.97754 l 0,17.09472 q 0,5.82276 3.55957,5.82276 3.58154,0 3.58154,-5.82276 z"
         style="font-style:normal;font-variant:normal;font-weight:bold;font-stretch:normal;font-family:Oswald;-inkscape-font-specification:'Oswald Bold'"
         id="path4146" />
      <path
         d="m 260.47963,451.94821 0,-24.85107 7.99805,0 0,24.60937 q 0,2.10938 0.022,3.07617 0.022,0.94483 0.10986,2.32911 0.0879,1.3623 0.30762,1.91162 0.21973,0.54931 0.59326,1.18652 0.39551,0.63721 1.01074,0.83496 0.61524,0.19776 1.49414,0.19776 0.87891,0 1.49414,-0.19776 0.61524,-0.19775 0.98877,-0.81299 0.39551,-0.6372 0.61524,-1.18652 0.21973,-0.54932 0.30762,-1.88965 0.0879,-1.3623 0.10986,-2.28516 0.022,-0.94482 0.022,-3.03222 0,-0.0879 0,-0.13184 l 0,-24.60937 7.99805,0 0,24.85107 q 0,1.88965 -0.10986,3.42774 -0.10987,1.53808 -0.41749,3.18603 -0.30761,1.64795 -0.83496,2.92236 -0.52734,1.25245 -1.40625,2.417 -0.8789,1.14257 -2.0874,1.88965 -1.18652,0.74707 -2.87842,1.18652 -1.69189,0.43945 -3.80127,0.43945 -2.10937,0 -3.80127,-0.43945 -1.69189,-0.43945 -2.87841,-1.18652 -1.18653,-0.74708 -2.06543,-1.88965 -0.87891,-1.16455 -1.40625,-2.417 -0.52735,-1.27441 -0.85694,-2.92236 -0.30761,-1.64795 -0.41748,-3.18603 -0.10986,-1.53809 -0.10986,-3.42774 z"
         style="font-style:normal;font-variant:normal;font-weight:bold;font-stretch:normal;font-family:Oswald;-inkscape-font-specification:'Oswald Bold'"
         id="path4148" />
      <path
         d="m 288.07729,466.64792 0,-39.55078 7.99804,0 0,34.05761 7.86621,0 0,5.49317 -15.86425,0 z"
         style="font-style:normal;font-variant:normal;font-weight:bold;font-stretch:normal;font-family:Oswald;-inkscape-font-specification:'Oswald Bold'"
         id="path4150" />
      <path
         d="m 314.53236,461.00095 0.74707,0 q 1.56006,0 2.52686,-0.35157 0.9668,-0.37353 1.47217,-1.25244 0.50537,-0.8789 0.65918,-1.97754 0.17578,-1.1206 0.17578,-2.98828 0,-3.09814 -1.09863,-4.81201 -1.07666,-1.71387 -3.69141,-1.71387 l -0.79102,0 0,13.09571 z m -0.0439,-18.34717 1.3623,0 q 1.09864,0 1.84571,-0.41748 0.74707,-0.41748 1.1206,-1.2085 0.39551,-0.81299 0.54932,-1.73584 0.15381,-0.92285 0.15381,-2.17529 0,-0.98877 -0.15381,-1.73584 -0.13184,-0.74707 -0.30762,-1.23047 -0.17578,-0.50537 -0.59326,-0.83496 -0.41748,-0.35156 -0.74707,-0.50537 -0.30762,-0.17578 -0.9668,-0.2417 -0.6372,-0.0879 -1.03271,-0.0879 -0.39551,-0.022 -1.23047,-0.022 l 0,10.19531 z m -7.9541,23.99414 0,-39.55078 8.15185,0 q 2.19727,0 3.86719,0.2417 1.69189,0.21972 3.2959,0.90088 1.62597,0.65918 2.65869,1.77978 1.05469,1.12061 1.66992,2.96631 0.63721,1.82373 0.63721,4.32861 0,3.09815 -1.47217,4.87793 -1.45019,1.77979 -4.52637,2.8125 7.05323,1.71387 7.05323,9.97559 0,5.95459 -2.85645,8.81103 -2.85644,2.85645 -8.72314,2.85645 l -9.75586,0 z"
         style="font-style:normal;font-variant:normal;font-weight:bold;font-stretch:normal;font-family:Oswald;-inkscape-font-specification:'Oswald Bold'"
         id="path4152" />
      <path
         d="m 331.40736,451.94821 0,-24.85107 7.99805,0 0,24.60937 q 0,2.10938 0.022,3.07617 0.022,0.94483 0.10987,2.32911 0.0879,1.3623 0.30761,1.91162 0.21973,0.54931 0.59327,1.18652 0.3955,0.63721 1.01074,0.83496 0.61523,0.19776 1.49414,0.19776 0.8789,0 1.49414,-0.19776 0.61523,-0.19775 0.98877,-0.81299 0.39551,-0.6372 0.61523,-1.18652 0.21973,-0.54932 0.30762,-1.88965 0.0879,-1.3623 0.10986,-2.28516 0.022,-0.94482 0.022,-3.03222 0,-0.0879 0,-0.13184 l 0,-24.60937 7.99804,0 0,24.85107 q 0,1.88965 -0.10986,3.42774 -0.10986,1.53808 -0.41748,3.18603 -0.30762,1.64795 -0.83496,2.92236 -0.52735,1.25245 -1.40625,2.417 -0.87891,1.14257 -2.0874,1.88965 -1.18653,0.74707 -2.87842,1.18652 -1.6919,0.43945 -3.80127,0.43945 -2.10938,0 -3.80127,-0.43945 -1.6919,-0.43945 -2.87842,-1.18652 -1.18652,-0.74708 -2.06543,-1.88965 -0.87891,-1.16455 -1.40625,-2.417 -0.52734,-1.27441 -0.85693,-2.92236 -0.30762,-1.64795 -0.41748,-3.18603 -0.10987,-1.53809 -0.10987,-3.42774 z"
         style="font-style:normal;font-variant:normal;font-weight:bold;font-stretch:normal;font-family:Oswald;-inkscape-font-specification:'Oswald Bold'"
         id="path4154" />
      <path
         d="m 367.00307,443.55466 2.28515,0 q 0.92285,0 1.58203,-0.61524 0.65918,-0.61523 0.94483,-1.56006 0.30762,-0.94482 0.41748,-1.73584 0.13184,-0.79101 0.13184,-1.49414 0,-0.70312 -0.10987,-1.45019 -0.0879,-0.74707 -0.35156,-1.64795 -0.2417,-0.92285 -0.83496,-1.49414 -0.57129,-0.59326 -1.40625,-0.59326 l -2.65869,0 0,10.59082 z m -7.99805,23.09326 0,-39.55078 8.70117,0 q 2.96631,0 5.20752,0.57129 2.26319,0.54931 3.95508,1.75781 1.69189,1.18652 2.5708,3.22998 0.87891,2.02148 0.87891,4.85596 0,1.23047 -0.0879,2.19726 -0.0879,0.9668 -0.41748,2.21924 -0.30762,1.23047 -0.85694,2.19727 -0.54931,0.94482 -1.58203,1.86767 -1.03271,0.92285 -2.43896,1.53809 3.55957,11.29394 6.19628,19.11621 l -8.28369,0 -4.52636,-18.21533 -1.31836,0 0,18.21533 -7.99805,0 z"
         style="font-style:normal;font-variant:normal;font-weight:bold;font-stretch:normal;font-family:Oswald;-inkscape-font-specification:'Oswald Bold'"
         id="path4156" />
      <path
         d="m 383.70229,466.64792 0,-39.57276 5.75683,0 8.6792,20.69825 0,-20.69825 6.63574,0 0,39.57276 -5.53711,0 -8.65722,-21.95068 0,21.95068 -6.87744,0 z"
         style="font-style:normal;font-variant:normal;font-weight:bold;font-stretch:normal;font-family:Oswald;-inkscape-font-specification:'Oswald Bold'"
         id="path4158" />
      <path
         d="m 417.14467,455.332 8.10791,-1.56006 q 0,1.2085 0.0439,2.13135 0.0439,0.92285 0.21973,2.02148 0.19775,1.07666 0.50537,1.77979 0.32959,0.68115 0.90088,1.16455 0.59326,0.46143 1.38428,0.46143 2.37304,0 2.37304,-3.03223 0,-4.15283 -4.68017,-8.26172 l -2.48291,-2.10937 q -1.18652,-0.98877 -1.88965,-1.64795 -0.70312,-0.65918 -1.66992,-1.77979 -0.94483,-1.1206 -1.49414,-2.15332 -0.52735,-1.05469 -0.92285,-2.52685 -0.37354,-1.47217 -0.37354,-3.12012 0,-4.81201 3.0542,-7.60254 3.0542,-2.8125 8.10791,-2.8125 4.19678,0 7.14111,2.98828 2.94434,2.98828 2.94434,7.20703 l -0.022,0.28565 q 0,0.28564 0,0.65918 l -8.26172,1.14257 q 0,-0.2417 0.022,-0.74707 0.0439,-0.52734 0.0439,-0.85693 0,-0.79102 -0.10987,-1.51611 -0.10986,-0.7251 -0.37353,-1.4502 -0.2417,-0.7251 -0.76905,-1.14258 -0.52734,-0.43945 -1.27441,-0.43945 -1.31836,0 -1.97754,1.03272 -0.65918,1.03271 -0.65918,2.43896 0,1.23047 0.37354,2.30713 0.39551,1.07666 1.16455,2.02148 0.79101,0.92285 1.45019,1.53809 0.65918,0.61523 1.75782,1.51611 1.09863,0.87891 1.56005,1.29639 1.6919,1.49414 2.85645,2.8125 1.16455,1.29639 2.19727,2.94434 1.03271,1.64794 1.53808,3.55957 0.52735,1.91162 0.52735,4.13085 0,4.15284 -2.96631,6.81153 -2.96631,2.63672 -7.20703,2.63672 -2.74659,0 -4.87793,-1.01075 -2.13135,-1.01074 -3.44971,-2.74658 -1.29639,-1.73584 -1.99951,-3.84521 -0.70313,-2.10938 -0.81299,-4.52637 z"
         style="font-style:normal;font-variant:normal;font-weight:bold;font-stretch:normal;font-family:Oswald;-inkscape-font-specification:'Oswald Bold'"
         id="path4160" />
      <path
         d="m 449.68617,444.082 q 0.63721,0 1.12061,-0.0659 0.50537,-0.0879 0.8789,-0.17578 0.37354,-0.10986 0.65918,-0.37353 0.28565,-0.26368 0.46143,-0.46143 0.19775,-0.19775 0.32959,-0.63721 0.13184,-0.46142 0.19775,-0.74707 0.0659,-0.28564 0.0879,-0.92285 0.0439,-0.63721 0.0439,-1.01074 0,-0.39551 0,-1.2085 0,-0.21972 0,-0.32959 0,-0.85693 -0.022,-1.29638 0,-0.43946 -0.0659,-1.12061 -0.0659,-0.68115 -0.21973,-1.01074 -0.13183,-0.35156 -0.41748,-0.79102 -0.26367,-0.43945 -0.65918,-0.6372 -0.39551,-0.19776 -1.01074,-0.35157 -0.59326,-0.1538 -1.38428,-0.1538 l 0,11.29394 z m -8.06396,22.56592 0,-39.55078 9.5581,0 q 5.16358,0 7.51465,2.87842 2.35108,2.87841 2.35108,8.32763 0,2.68067 -0.52735,4.65821 -0.50537,1.97753 -1.42822,3.27392 -0.92285,1.27442 -2.37305,2.06543 -1.45019,0.76904 -3.14209,1.09863 -1.69189,0.30762 -3.91113,0.32959 l 0,16.91895 -8.04199,0 z"
         style="font-style:normal;font-variant:normal;font-weight:bold;font-stretch:normal;font-family:Oswald;-inkscape-font-specification:'Oswald Bold'"
         id="path4162" />
      <path
         d="m 464.12221,466.64792 0,-39.55078 16.50146,0 0,5.49316 -8.50342,0 0,10.7666 6.02051,0 0,5.625 -6.02051,0 0,12.17285 8.50342,0 0,5.49317 -16.50146,0 z"
         style="font-style:normal;font-variant:normal;font-weight:bold;font-stretch:normal;font-family:Oswald;-inkscape-font-specification:'Oswald Bold'"
         id="path4164" />
      <path
         d="m 483.45815,466.64792 0,-39.55078 16.50146,0 0,5.49316 -8.50342,0 0,10.7666 6.02051,0 0,5.625 -6.02051,0 0,12.17285 8.50342,0 0,5.49317 -16.50146,0 z"
         style="font-style:normal;font-variant:normal;font-weight:bold;font-stretch:normal;font-family:Oswald;-inkscape-font-specification:'Oswald Bold'"
         id="path4166" />
      <path
         d="m 502.79408,466.64792 0,-39.55078 8.26172,0 q 3.95508,0 6.50391,0.7251 2.5708,0.70312 4.02099,2.35107 1.47217,1.62598 2.02149,3.91113 0.57129,2.28516 0.57129,5.82276 l 0,12.96386 q 0,2.10938 -0.13184,3.69141 -0.13183,1.56006 -0.50537,3.07617 -0.35156,1.49414 -0.98877,2.54883 -0.61523,1.03271 -1.604,1.93359 -0.98877,0.90088 -2.39502,1.42823 -1.38428,0.52734 -3.27393,0.81298 -1.86767,0.28565 -4.30664,0.28565 l -8.17383,0 z m 8.30567,-5.60303 q 1.14257,0 1.80175,-0.022 0.65918,-0.0439 1.31836,-0.17578 0.65918,-0.13184 0.9668,-0.35157 0.30762,-0.24169 0.57129,-0.68115 0.26367,-0.43945 0.32959,-1.03271 0.0879,-0.61524 0.0879,-1.51612 l 0,-21.2915 q 0,-1.95557 -1.16455,-2.59277 -1.16455,-0.63721 -3.91113,-0.65918 l 0,28.32275 z"
         style="font-style:normal;font-variant:normal;font-weight:bold;font-stretch:normal;font-family:Oswald;-inkscape-font-specification:'Oswald Bold'"
         id="path4168" />
      <path
         d="m 531.33656,466.64792 -5.47119,-39.55078 6.81153,0 2.46093,26.1914 3.38379,-26.1914 5.8667,0 3.31787,26.0376 2.5708,-26.0376 6.8335,0 -5.53711,39.55078 -6.8335,0 -3.31787,-25.88379 -3.25195,25.88379 -6.8335,0 z"
         style="font-style:normal;font-variant:normal;font-weight:bold;font-stretch:normal;font-family:Oswald;-inkscape-font-specification:'Oswald Bold'"
         id="path4170" />
      <path
         d="m 566.55873,453.26657 4.08692,0 -1.99952,-14.67773 -2.0874,14.67773 z m -10.01953,13.38135 8.54736,-39.55078 7.0752,0 8.52539,39.55078 -7.88818,0 -1.62598,-8.45947 -5.16358,0 -1.53808,8.45947 -7.93213,0 z"
         style="font-style:normal;font-variant:normal;font-weight:bold;font-stretch:normal;font-family:Oswald;-inkscape-font-specification:'Oswald Bold'"
         id="path4172" />
      <path
         d="m 587.30092,466.64792 0,-13.07373 -7.42676,-26.47705 7.53662,0 3.69141,17.38037 q 0.68115,-2.85645 2.04346,-8.6792 1.3623,-5.84473 2.02148,-8.70117 l 7.31689,0 -7.44873,26.47705 0,13.07373 -7.73437,0 z"
         style="font-style:normal;font-variant:normal;font-weight:bold;font-stretch:normal;font-family:Oswald;-inkscape-font-specification:'Oswald Bold'"
         id="path4174" />
    </g>
  </g>
</svg>
